
<global>
amp_veltrack=0
ampeg_release=0.85
</global>

<group>
group_label=PP
lpc_hicc1=42
lpc_locc1=0

<region>
hikey=B2
hivel=127
lokey=A#2
lovel=0
lpc=mHwAQ22fl8NfVixDU/4tQT1NKELQnSvCkJnNv9j7W8FapY5A3kuNvxmxiMDItRZB4JMFviXUWEA99h/ATpBZutMZM0A4C2nAc31CwC6kpb+UGCRATmsSQHMXpj8NrAXA
lpc_rms=-50.89
offset=7098
pitch_keycenter=A#2
sample=Trombone_Marcato_Half_PP_A#3.opus
tune=-42
</region>

<region>
hikey=B3
hivel=127
lokey=A#3
lovel=0
lpc=HR9nQ4lMHcQ7uPJDPEz8waImBUKaP/XCprrGQTG6acEyAL1BPioQQE7u28AP5zNBiDoLwZc/EEDOz8NASYkdwIZMmsCp9Pe/UzAOwTK/BEG5ph9BOr08QaIWA8L302hB
lpc_rms=-43.12
offset=5953
pitch_keycenter=A#3
sample=Trombone_Marcato_Half_PP_A#4.opus
tune=-18
</region>

<region>
hikey=D#5
hivel=127
lokey=A#4
lovel=0
lpc=hrJqQ9pYMcQVtDVESWF4w4HtskKpO2zDENpVQxTM3cKbuMJCRdzswhzCrUJlyIvBc1LxwBHjg0FexrTB+m/ywF8MKUI8rYPCeJlrQkFLKMKKNGxCo7q3wdFBNsKtzgNC
lpc_rms=-37.40
offset=3397
pitch_keycenter=A#4
sample=Trombone_Marcato_Half_PP_A#5.opus
tune=-19
</region>

<region>
hikey=C#3
hivel=127
lokey=C3
lovel=0
lpc=/i+pQtzMO8MW3LtC403+QFuhAEIpPqzBWEpywDg8HMF2TAtAFigCv7i3CEDcW52/robOPuRhgD+LaO8/9Fy+vynevz+vt40/sng/wEYjFrwMDEi/urkwQKEAB8CHRR0/
lpc_rms=-55.30
offset=5344
pitch_keycenter=C3
sample=Trombone_Marcato_Half_PP_C4.opus
tune=-10
</region>

<region>
hikey=C#4
hivel=127
lokey=C4
lovel=0
lpc=7G0GQzFMtcPWVotDZB6kwRhTtkFFM4vCuqjNQElqF8AWyIpB4QalvxjCBcFkiPtAFv9TQLR57MCs2IpAAk6HwCf+5z/vw47AWU1hwDHzHkE+vYRA15epQFVfscEskCpB
lpc_rms=-48.04
offset=5896
sample=Trombone_Marcato_Half_PP_C5.opus
tune=-20
</region>

<region>
hikey=D#3
hivel=127
lokey=D3
lovel=0
lpc=FxBDQ+2868OiBYtDXMC7QRA7RkLWg3LCvF6BwaWYgMFS2klBl1TBvrb32D9/LIlA1XatQPpp/z/KX57A8KWwwCP4iMCp29VAYfV8QJRrKb4upuI/kLFDwMjGDsF7aOxA
lpc_rms=-46.87
offset=4051
pitch_keycenter=D3
sample=Trombone_Marcato_Half_PP_D4.opus
tune=-25
</region>

<region>
hikey=D#4
hivel=127
lokey=D4
lovel=0
lpc=Q6d+Q5HOL8QHiQxECgZewmPgIkL8tA/Ds/QLQoDZcMGs1w9CFdWuwKQldMFcuX9BPm4fwYnlE0Bkuso+h4TjPq9lgUEityHBpv+KwaN91D/BPYFBsX57QQbtGsJQV45B
lpc_rms=-42.13
offset=6940
pitch_keycenter=D4
sample=Trombone_Marcato_Half_PP_D5.opus
tune=-27
</region>

<region>
hikey=F2
hivel=127
lokey=C1
lovel=0
lpc=FMffQiR7j8Mt0klD641GwGF4a0Fr2DbChhsewIruAUDrJyFBUJ08P8CY8r/UDirAJ+KIv24xiEDmL0JAYlJJwJ4zzL9I7YW/ssZfv5oQmD8SYQ1A1UFJv0CvQb4OHra9
lpc_rms=-51.02
offset=5100
pitch_keycenter=E2
sample=Trombone_Marcato_Half_PP_E3.opus
tune=-28
</region>

<region>
hikey=F3
hivel=127
lokey=E3
lovel=0
lpc=8i75QneSmMMXQUlD4tcywMkczEGOcFbCyk3VQDxrhMAzYj5BLDRsvwseq8AfqGtADAnCwOq6276wogNBZDo1Pwpbm0AQysfAjLbxwKEv6z/z8TBAawjbQCWVEcFu2VNA
lpc_rms=-50.44
offset=4737
pitch_keycenter=E3
sample=Trombone_Marcato_Half_PP_E4.opus
tune=-21
</region>

<region>
hikey=F4
hivel=127
lokey=E4
lovel=0
lpc=MgkiQ5PD28MqVbFDfXxAwh8q1EEUMq/C8rUCQlC3AcF5B4VB4jBJwe9NDcG7W4xBuCqOwDUOGUGuaHrA1IQmwQh6HUAobSFAvTmdwG44xj/Wiio/VaGLQQWFp8Ey8rtA
lpc_rms=-46.05
offset=5371
pitch_keycenter=E4
sample=Trombone_Marcato_Half_PP_E5.opus
tune=-28
</region>

<region>
hikey=G2
hivel=127
lokey=F#2
lovel=0
lpc=Xny0Qjs9RMMgSrlC7HA3Qdg7/kHpxZLBZ0WswIC1LMGzMwQ/4PjIP1shnL6hnpdAdJ9+v9WJ0T8GPhTAprXEv4Hqsj9an+q+dTvMP1LXgL9Q99i+t4kEP83+0D1GwAO+
lpc_rms=-55.37
offset=6212
pitch_keycenter=F#2
sample=Trombone_Marcato_Half_PP_F#3.opus
tune=-34
</region>

<region>
hikey=G3
hivel=127
lokey=F#3
lovel=0
lpc=YdshQzA8zcPMDI5DqLRnwdyPR0KTXq/CpuT9QGtJAMF7yLZB4QSuwL0rpr8QnqJAR6VGwVUE/UBWZsFAgqWbwKk6ZEBEVB/AyganwNzr7b/oAMJA/jH3QKHthsFHAQZB
lpc_rms=-47.61
offset=4586
pitch_keycenter=F#3
sample=Trombone_Marcato_Half_PP_F#4.opus
tune=-16
</region>

<region>
hikey=G4
hivel=127
lokey=F#4
lovel=0
lpc=0cpAQ5V7DsRBbgJEs0HSws2sK0IYRg7D+5I4Qt3gFMAKEM9Buq5IwWBLzUC6TOFAhZYowXee+79Ucn1AKQmfwP26D0Hxf6bAhCpywdqiS0E/FUZBpcYQQWTYGMKQ2phB
lpc_rms=-42.86
offset=5146
pitch_keycenter=F#4
sample=Trombone_Marcato_Half_PP_F#5.opus
tune=-22
</region>

<region>
hikey=A2
hivel=127
lokey=G#2
lovel=0
lpc=MoavQqi7UMNFuPJCP0kNQTtU3kHWAgHCDHqwwJUsCMF/acNAuRwDQHMiPj5ZZzG/nPUFQLhpLUCdfp89zC4KvhGqjb//BI7A5hEGwCo8JEA+znhAnqOHPTh6db8HvEi/
lpc_rms=-54.28
offset=4819
pitch_keycenter=G#2
sample=Trombone_Marcato_Half_PP_G#3.opus
tune=-26
</region>

<region>
hikey=A3
hivel=127
lokey=G#3
lovel=0
lpc=F87nQmv9kMM6v0dD5QAvwQX7zkGKTU/C0tj3QD7qw7+R2uBAueatv5rkf8DBT/tAU1QMwH3khcDiosc/DzwzwEhgn0Bix/W9Ko5qwMKMQkCysew9CsJjQDPmHsFbsK1A
lpc_rms=-50.81
offset=4234
pitch_keycenter=G#3
sample=Trombone_Marcato_Half_PP_G#4.opus
tune=-22
</region>

<region>
hikey=A4
hivel=127
lokey=G#4
lovel=0
lpc=0oGaQxXFasRn1WhEpD6MwyBd10Jk+YbD1iUoQxgLcsH1lS/ALuw+wuDG3UH4ERZC3lsTwYfro8GegrFBNOwNwhXfFkFykUFBA2oAwa6T1EBJMtXB7/LQQovDBMNMtVZC
lpc_rms=-37.05
offset=1687
pitch_keycenter=G#4
sample=Trombone_Marcato_Half_PP_G#5.opus
tune=-33
</region>
</group>

<group>
group_label=MF
lpc_hicc1=84
lpc_locc1=43

<region>
hikey=B2
hivel=127
lokey=A#2
lovel=0
lpc=VZfzQpyIwsOXg9lDizIiwyAtRsF1benBX2ODQhVFMsJeuaxBHsfvwDJVn0AMtj3BCI/NQZ0qaMIcOa1CTCuYwnsfbkJFWobCFj+NQqL5bMIQSkJC8w0LwgO9YkFxZdi/
lpc_rms=-40.46
offset=1506
pitch_keycenter=A#2
sample=Trombone_Marcato_Half_MF_A#3.opus
tune=-40
</region>

<region>
hikey=B3
hivel=127
lokey=A#3
lovel=0
lpc=cKVpQ57mT8R3p4VEFT4HxALb4kIpLzLDNdpBQzTEhcJ82GNBf15UwMBVgsFkM/xBdQa/wYDUvEBsYNNA88A+wm0Ey0IDA9PCMBBJQrswR0Di5T9BBmNPwkVDJUJBMSLB
lpc_rms=-35.76
offset=1144
pitch_keycenter=A#3
sample=Trombone_Marcato_Half_MF_A#4.opus
tune=-20
</region>

<region>
hikey=D#5
hivel=127
lokey=A#4
lovel=0
lpc=7EPpQscc1cMlLiNEf58GxI4gi0PQgBDDCeLWQhAncsKLNqRB+OdAQFqhPsIiLMdCdlrNwm4+bkLHUoPBgsb4wcI810LzgB/DstcEQzowpML/62dCvxb4wQYEhb2OeL5A
lpc_rms=-31.94
offset=812
pitch_keycenter=A#4
sample=Trombone_Marcato_Half_MF_A#5.opus
tune=-25
</region>

<region>
hikey=C#3
hivel=127
lokey=C3
lovel=0
lpc=qejDQiyapsPWvdZDdrl8w0Hhr0KasoXCJzlHQsAkhMG+z6FBF/25wWibecCyFwlCG/IvwmuQrkFOBnhBzqcBwrmuBUIktQDCZHzQQZ9zw8G069VBaBK3wdQHXEHTHIfA
lpc_rms=-43.22
offset=1357
pitch_keycenter=C3
sample=Trombone_Marcato_Half_MF_C4.opus
tune=-9
</region>

<region>
hikey=C#4
hivel=127
lokey=C4
lovel=0
lpc=erYOQ/RGAsRvkTFExc3Ew8iujkI/GufC/K01Qx5YnsLCh2JBAF/ywVpqmUHpNrhBnz1PwnEgHEIRI4RB0wB4wgqjdUI7MxvC6emmQZpVacFAFaVBs+fGwd1qcEHkR0rA
lpc_rms=-38.92
offset=467
sample=Trombone_Marcato_Half_MF_C5.opus
tune=-15
</region>

<region>
hikey=D#3
hivel=127
lokey=D3
lovel=0
lpc=h3lzQ7nBUcQbPoNE5vICxHFewEJKewPDR80XQxajG8L4o85Aq3kuwkzlKUH/dJdCsXO+wh5hCkI2tylCS5OawqXqfUKjmzjC/+YNQs1j0sFWSMlBrn+GwTTmaz+kkTJA
lpc_rms=-36.52
offset=1804
pitch_keycenter=D3
sample=Trombone_Marcato_Half_MF_D4.opus
tune=-20
</region>

<region>
hikey=D#4
hivel=127
lokey=D4
lovel=0
lpc=9xphQw/9TMTyH4hENewLxO7ltEIeN1HDTrSPQzbcnMLhPxvC1FqFvtMlQkEg5dVBwbU6wpfjAkLhBom+e75Fwu5pwELYotvCdYSxQpWkY8IK3jBCu74wwtkj7EFuGgPB
lpc_rms=-35.04
offset=1613
pitch_keycenter=D4
sample=Trombone_Marcato_Half_MF_D5.opus
tune=-23
</region>

<region>
hikey=F2
hivel=127
lokey=C1
lovel=0
lpc=FIR0QrYYZcNtALRDYyuZwwIOJUPz+qTCMcc+QrtyesHG5o1Ai7R/wSfeh0ESbcK/boAJwbjVzD/vhGdBK4LcwQ0HDkJt9xLCmVHwQWPLusHQoKRBxf9/wa9p90CZkcW/
lpc_rms=-43.59
offset=2467
pitch_keycenter=E2
sample=Trombone_Marcato_Half_MF_E3.opus
tune=-25
</region>

<region>
hikey=F3
hivel=127
lokey=E3
lovel=0
lpc=6E0YQ1wd8sN1vgxEyzCOw+mUuUKlSNTChe31QtEjmML8FhBCyEsjwn6iHEJPkD7BwCGJwS4XwEFMX6zApiNiwRq3LELlvIPCrZw8Qkw0psFWElJBvoiAv+kTL8EZycxA
lpc_rms=-40.51
offset=4806
pitch_keycenter=E3
sample=Trombone_Marcato_Half_MF_E4.opus
tune=-16
</region>

<region>
hikey=F4
hivel=127
lokey=E4
lovel=0
lpc=6dbcQtTpu8P8Ze5DhDSGw0TBukJdAMHC7n7hQsUGnMKf3qtBo7v+QKGSDsDjFiJBslq/wfmg7EDiw9VBirMrwjfxJUIdpCHCPdjvQabgXsGp3LFAhwCLQAu2JMFMWJdA
lpc_rms=-41.12
offset=843
pitch_keycenter=E4
sample=Trombone_Marcato_Half_MF_E5.opus
tune=-21
</region>

<region>
hikey=G2
hivel=127
lokey=F#2
lovel=0
lpc=ZdKTQr5QiMMVKM9DaZOmwzO7JkNpurfCFD2oQsjIgMIwWg9CSIi7wVH5REE1qDlBl0XxwWExtEGYBGVAbpLTwQngIEKBdDDCAqMLQjSYo8FaW0VBoMoiwYXjzUDQzda/
lpc_rms=-42.52
offset=2045
pitch_keycenter=F#2
sample=Trombone_Marcato_Half_MF_F#3.opus
tune=-25
</region>

<region>
hikey=G3
hivel=127
lokey=F#3
lovel=0
lpc=3nw1Q3z8CsSZ3AxEGyI7w7S6fEIEbfDCAORGQqn3ij/utXBBBHowwSFIkME94ehBfEbEQFPABMLgvthBGW6JwYl2RUH0WkTBvTlKQWgqWsGpADu+vrr+QTA/FMKBTlBB
lpc_rms=-41.68
offset=5863
pitch_keycenter=F#3
sample=Trombone_Marcato_Half_MF_F#4.opus
tune=-12
</region>

<region>
hikey=G4
hivel=127
lokey=F#4
lovel=0
lpc=2WH7QuWT5MOJgCJE5VPcw3SkKUObzfDC2IIFQ4UVucKyulJCC0mmwXGfosHAvVhC9UiBwuGkMkJEomJAMxNmwoRNsUJdxaXCScRUQq8iE8I0GDVCtbYswjncoEHrQ1fA
lpc_rms=-37.43
offset=659
pitch_keycenter=F#4
sample=Trombone_Marcato_Half_MF_F#5.opus
tune=-19
</region>

<region>
hikey=A2
hivel=127
lokey=G#2
lovel=0
lpc=s0O6QuyyocOUxdZDQl6Eww62xkLeXqjCQCOaQith8cFhNTVBkr09wbByEsFaxvZBnzOkwQ/E/sBb8MNBNYDRwey++0FC/hbCj5/xQSIMmMFSdFVBE1+swDNh47/V89s/
lpc_rms=-42.19
offset=2268
pitch_keycenter=G#2
sample=Trombone_Marcato_Half_MF_G#3.opus
tune=-48
</region>

<region>
hikey=A3
hivel=127
lokey=G#3
lovel=0
lpc=/H8gQ6dJBsT6JCVEUDe4w1OPKEPNbD7DD6QuQ7g9uMIbAZ5Blb9rQbO0GMJo6ZpCafK5wnzrb0JPBzk+/LwzwnfEQkJk3RfCfaUcQu0ROsKe0BZCz4PHwM0DVMEWbtdA
lpc_rms=-36.19
offset=1329
pitch_keycenter=G#3
sample=Trombone_Marcato_Half_MF_G#4.opus
tune=-32
</region>

<region>
hikey=A4
hivel=127
lokey=G#4
lovel=0
lpc=b05VQ6VTQsTMRoNE4yUXxCWOUUNxyoTDktpkQ/lfgMK8sKxCV6Pawv7rgMFLPARD9OQcwxLavkJUoFvA1hgZwn2sdEKSGrrCzwnHQuouw8LwaqFCCtGvweRzm8H46ThB
lpc_rms=-31.72
offset=1310
pitch_keycenter=G#4
sample=Trombone_Marcato_Half_MF_G#5.opus
tune=-32
</region>
</group>

<group>
group_label=FF
lpc_hicc1=127
lpc_locc1=85

<region>
hikey=B2
hivel=127
lokey=A#2
lovel=0
lpc=wgaVQLD9EMF3n/tA61O5wCTXnUDBqXTASfAvQDdn7L9Fyqc/+zQ9v6FwiT60TJK9IpMwvnZU2TyPy/Y+O4Brv4tUqT/AhaC/LXyRP2l5hL+14oE/YW1fv8hxzz7OTD69
lpc_rms=-30.38
offset=1288
pitch_keycenter=A#2
sample=Trombone_Marcato_Half_FF_A#3.opus
tune=-41
</region>

<region>
hikey=B3
hivel=127
lokey=A#3
lovel=0
lpc=vZ0WQbqVu8FOQdJBRSKwwXOXm0EraYbBr31MQePOEsFLOO9ApyeywHXwLkC+/8u/lLzZP8JDm78o8wVAI+CrwJXQDUFhCBXB1G3vQCYp28DKf9FAPHKXwKu4CkDqbs2+
lpc_rms=-25.91
offset=961
pitch_keycenter=A#3
sample=Trombone_Marcato_Half_FF_A#4.opus
tune=-20
</region>

<region>
hikey=D#5
hivel=127
lokey=A#4
lovel=0
lpc=0cx6QG7wusDpG3JAKNdGwCh/GUCYq56/PLUTP+me675JBtc9hoVlPwRNSL/YfRQ/+nEyv8ZIDT9rC4+8eQMlv6YTtD88zZG/bFAvP637eL4coZW9/q3JvUs0Hb8Ol0g/
lpc_rms=-21.87
offset=1229
pitch_keycenter=A#4
sample=Trombone_Marcato_Half_FF_A#5.opus
tune=-22
</region>

<region>
hikey=C#3
hivel=127
lokey=C3
lovel=0
lpc=LMNiQEQzucDWaoJAxsMuwOEuE0CaPNK/2LicPx4qGb9+etE+/XJVvuS8mbw+nxY+VkK6vaTqNL2UqK0+L1wtv8qZiz/GFmG/6FZHP/rFVb9Dyjo/7CoAv4dIIz6Z72E9
lpc_rms=-32.93
offset=1123
pitch_keycenter=C3
sample=Trombone_Marcato_Half_FF_C4.opus
tune=-9
</region>

<region>
hikey=C#4
hivel=127
lokey=C4
lovel=0
lpc=MubLQK5RasGsaIFBQaZkwbpMS0H5wiPB8+P9QCH3xcCbu6RAaWuUwKcYgkBV0DTAea6+P23Kkb9Ki/A/FCYswFyhXEDvWl7AfAZeQI9hZ8Bk9lVAEN0qwHST4z+e0BK/
lpc_rms=-28.36
offset=418
sample=Trombone_Marcato_Half_FF_C5.opus
tune=-15
</region>

<region>
hikey=D#3
hivel=127
lokey=D3
lovel=0
lpc=hXEJQaXKm8HUtJ5B59F7wV/VRkE1YhTBGmPPQE0FicC2uE5A0isOwHKumD+wLUy/K3mFPsFO5b5Ll+Q/9dJOwP9LjUCiuJDAQe+MQCJ7gMCMO1BA/OcOwPcLgT/3IGy+
lpc_rms=-29.01
offset=842
pitch_keycenter=D3
sample=Trombone_Marcato_Half_FF_D4.opus
tune=-18
</region>

<region>
hikey=D#4
hivel=127
lokey=D4
lovel=0
lpc=pULiQE36gMHNFIdB2a5XwSSnI0E21d3A4sOOQNw3PsBvOgNAFKijv/XGID8aLEw80qODv5jztD8eFTS/Recav75aDUDvizvA3R9JQC4RWsDRXlFA6UMiwKWcqT8dXGC+
lpc_rms=-25.46
offset=487
pitch_keycenter=D4
sample=Trombone_Marcato_Half_FF_D5.opus
tune=-16
</region>

<region>
hikey=F2
hivel=127
lokey=C1
lovel=0
lpc=fxnFQJOhYMGkM29BkitGwY7tJEFbjf7AGnmvQAL3ZMCNwDtAe3MowLCf+z/q7a2/4wqOPxLMqL96W+E/UvsQwBZmNUCr8znAXfYlQN5QFMAt5Po/nsWzvwmHJD8ma++9
lpc_rms=-38.33
offset=2135
pitch_keycenter=E2
sample=Trombone_Marcato_Half_FF_E3.opus
tune=-28
</region>

<region>
hikey=F3
hivel=127
lokey=E3
lovel=0
lpc=kSO+QGKjU8HwLmVBKhFFwfzjJEERg//A11S8QIkOcMAsshVA3F2bv6bMNT8fHUu/kFnxPujpML4YaEg/Cn/ev0xAPUDR2FXAmO9UQOAoQsBdDhFAQMSVv8rmYj45MFc+
lpc_rms=-29.55
offset=1277
pitch_keycenter=E3
sample=Trombone_Marcato_Half_FF_E4.opus
tune=-18
</region>

<region>
hikey=F4
hivel=127
lokey=E4
lovel=0
lpc=xvZFQcJBAMJEmhZCVSH5wVUf2EFgRsbBoaOqQfpGiMHZTFVBfAofwTZX70CYPKPA1cFmQDqMKMDVVxhAlPBswLb1w0CczLvAl39kQCrqQsAqQZdA9/F+wOBoWD+Cubw+
lpc_rms=-25.35
offset=1718
pitch_keycenter=E4
sample=Trombone_Marcato_Half_FF_E5.opus
tune=-27
</region>

<region>
hikey=G2
hivel=127
lokey=F#2
lovel=0
lpc=b/2UQE5GHcHBKyNBz3YNwY4I9UCwvMDA7beOQMRcTcA/fhVAYI3av2w4iz+y1fO+/AAxPhqmc767DyY/bQK0v2FqCkDPpRHAGdcCQDQE5L9j6b0/De14vzSJzT5qfBW+
lpc_rms=-35.99
offset=1641
pitch_keycenter=F#2
sample=Trombone_Marcato_Half_FF_F#3.opus
tune=-20
</region>

<region>
hikey=G3
hivel=127
lokey=F#3
lovel=0
lpc=mr1fQFoMwsDR6JpAsT1owEOHPUBmEAPA20ucP2OYMb+g1EQ/DjgTv/HlHD7uv3q9WHAgvefymr1k9vU+4y9iv+9Sgz/StHO/BaZiP5NmK79rBPE+sUpDvjKyX7vRPyS6
lpc_rms=-30.48
offset=258
pitch_keycenter=F#3
sample=Trombone_Marcato_Half_FF_F#4.opus
tune=-21
</region>

<region>
hikey=G4
hivel=127
lokey=F#4
lovel=0
lpc=rE6uQEAsLcG9fzVBg0MZwQh++kBfkbjAEbaOQPyWZMBrLzpArZT9v79Zzz+Q4mG/IoQIPjmG4T6uoS0+6eRrv3dI9T/WI+i/PefeP/ksx7+YELQ/Jzm0vxFMsz980rS+
lpc_rms=-27.27
offset=525
pitch_keycenter=F#4
sample=Trombone_Marcato_Half_FF_F#5.opus
tune=-20
</region>

<region>
hikey=A2
hivel=127
lokey=G#2
lovel=0
lpc=9U9nQMwiz8AGW7JAt+CNwL+xfEC+ij/ASCINQK/2xr9PP5Y/FLY4v6tSrD4+RfE8RhpHvgJl8jw1lc8+xOJJvx9lqT/RmaO/f+6DP450d7+l928/eSI0v8DUxT45IvC9
lpc_rms=-33.58
offset=1329
pitch_keycenter=G#2
sample=Trombone_Marcato_Half_FF_G#3.opus
tune=-22
</region>

<region>
hikey=A3
hivel=127
lokey=G#3
lovel=0
lpc=L3CaQDhuHsGJ3R5BurIFwTw160BJjLvAHMqIQLEBQcDIPx1AcnAAwMvr1z+JNHO/I7iHPrQSLD2HwQ8/eEfLv0dmDkCdGwXAZnT0P/Ov/r+cFsI/sWFov6JSND8kTJ6+
lpc_rms=-30.36
offset=3219
pitch_keycenter=G#3
sample=Trombone_Marcato_Half_FF_G#4.opus
tune=-23
</region>

<region>
hikey=A4
hivel=127
lokey=G#4
lovel=0
lpc=P6FaQBwiqsCLMXtADGoowFFOAEBB84m/c2LYPm0R6j5UmGq+cs3SPbX3AjufnF0+MxL1vuZSkD4FuKI+MyQ0vz7npj9LzIG/uSA4P0miAr/Gw/Q+CHQFvvB7bjxq8bA8
lpc_rms=-23.09
offset=781
pitch_keycenter=G#4
sample=Trombone_Marcato_Half_FF_G#5.opus
tune=-27
</region>
</group>

<group>
group_label=RR1
seq_length=4
seq_position=1

<region>
hivel=42
key=G4
lovel=0
sample=Trombone_staccato_PP_G3_RR1.opus
tune=-20
</region>

<region>
hivel=42
key=G3
lovel=0
offset=935
sample=Trombone_staccato_PP_G2_RR1.opus
tune=-4
</region>

<region>
hivel=42
key=G2
lovel=0
sample=Trombone_staccato_PP_G1_RR1.opus
tune=-8
</region>

<region>
hivel=42
key=G#4
lovel=0
offset=489
sample=Trombone_staccato_PP_G#3_RR1.opus
tune=-25
</region>

<region>
hivel=42
key=G#3
lovel=0
offset=456
sample=Trombone_staccato_PP_G#2_RR1.opus
tune=-2
</region>

<region>
hivel=42
key=G#2
lovel=0
offset=854
sample=Trombone_staccato_PP_G#1_RR1.opus
tune=-14
</region>

<region>
hivel=42
key=F4
lovel=0
offset=835
sample=Trombone_staccato_PP_F3_RR1.opus
tune=-28
</region>

<region>
hivel=42
key=F3
lovel=0
offset=1710
sample=Trombone_staccato_PP_F2_RR1.opus
tune=-25
</region>

<region>
hivel=42
key=F2
lovel=0
sample=Trombone_staccato_PP_F1_RR1.opus
tune=-6
</region>

<region>
hivel=42
key=F#4
lovel=0
sample=Trombone_staccato_PP_F#3_RR1.opus
tune=-33
</region>

<region>
hivel=42
key=F#3
lovel=0
offset=826
sample=Trombone_staccato_PP_F#2_RR1.opus
tune=+3
</region>

<region>
hivel=42
key=F#2
lovel=0
offset=2064
sample=Trombone_staccato_PP_F#1_RR1.opus
tune=-7
</region>

<region>
hivel=42
key=E4
lovel=0
offset=169
sample=Trombone_staccato_PP_E3_RR1.opus
tune=-11
</region>

<region>
hivel=42
key=E3
lovel=0
offset=1406
sample=Trombone_staccato_PP_E2_RR1.opus
tune=-15
</region>

<region>
hikey=E2
hivel=42
lokey=C1
lovel=0
offset=4419
pitch_keycenter=E2
sample=Trombone_staccato_PP_E1_RR1.opus
tune=-8
</region>

<region>
hivel=42
key=D4
lovel=0
offset=516
sample=Trombone_staccato_PP_D3_RR1.opus
tune=-23
</region>

<region>
hivel=42
key=D3
lovel=0
sample=Trombone_staccato_PP_D2_RR1.opus
tune=-16
</region>

<region>
hivel=42
key=D#4
lovel=0
offset=507
sample=Trombone_staccato_PP_D#3_RR1.opus
tune=-25
</region>

<region>
hivel=42
key=D#3
lovel=0
offset=454
sample=Trombone_staccato_PP_D#2_RR1.opus
tune=-5
</region>

<region>
hikey=D#5
hivel=42
lokey=C5
lovel=0
offset=911
pitch_keycenter=C5
sample=Trombone_staccato_PP_C4_RR1.opus
tune=-21
</region>

<region>
hikey=C4
hivel=42
lokey=C4
lovel=0
offset=770
sample=Trombone_staccato_PP_C3_RR1.opus
tune=-22
</region>

<region>
hivel=42
key=C3
lovel=0
offset=244
sample=Trombone_staccato_PP_C2_RR1.opus
tune=+15
</region>

<region>
hivel=42
key=C#4
lovel=0
offset=1581
sample=Trombone_staccato_PP_C#3_RR1.opus
tune=-13
</region>

<region>
hivel=42
key=C#3
lovel=0
offset=3580
sample=Trombone_staccato_PP_C#2_RR1.opus
tune=+3
</region>

<region>
hivel=42
key=B4
lovel=0
offset=1286
sample=Trombone_staccato_PP_B3_RR1.opus
tune=-14
</region>

<region>
hivel=42
key=B3
lovel=0
offset=1129
sample=Trombone_staccato_PP_B2_RR1.opus
tune=+5
</region>

<region>
hivel=42
key=B2
lovel=0
offset=362
sample=Trombone_staccato_PP_B1_RR1.opus
tune=-2
</region>

<region>
hivel=42
key=A4
lovel=0
offset=225
sample=Trombone_staccato_PP_A3_RR1.opus
tune=-18
</region>

<region>
hivel=42
key=A3
lovel=0
offset=605
sample=Trombone_staccato_PP_A2_RR1.opus
tune=-12
</region>

<region>
hivel=42
key=A2
lovel=0
sample=Trombone_staccato_PP_A1_RR1.opus
tune=-12
</region>

<region>
hivel=42
key=A#4
lovel=0
offset=314
sample=Trombone_staccato_PP_A#3_RR1.opus
tune=-27
</region>

<region>
hivel=42
key=A#3
lovel=0
offset=144
sample=Trombone_staccato_PP_A#2_RR1.opus
tune=+14
</region>

<region>
hivel=42
key=A#2
lovel=0
offset=3446
sample=Trombone_staccato_PP_A#1_RR1.opus
tune=-9
</region>

<region>
hivel=86
key=G4
lovel=43
offset=103
sample=Trombone_staccato_MF_G3_RR1.opus
tune=-19
</region>

<region>
hivel=86
key=G3
lovel=43
sample=Trombone_staccato_MF_G2_RR1.opus
tune=-8
</region>

<region>
hivel=86
key=G2
lovel=43
offset=1019
sample=Trombone_staccato_MF_G1_RR1.opus
tune=-25
</region>

<region>
hivel=86
key=G#4
lovel=43
offset=748
sample=Trombone_staccato_MF_G#3_RR1.opus
tune=-26
</region>

<region>
hivel=86
key=G#3
lovel=43
offset=690
sample=Trombone_staccato_MF_G#2_RR1.opus
tune=+2
</region>

<region>
hivel=86
key=G#2
lovel=43
offset=1340
sample=Trombone_staccato_MF_G#1_RR1.opus
tune=-35
</region>

<region>
hivel=86
key=F4
lovel=43
offset=781
sample=Trombone_staccato_MF_F3_RR1.opus
tune=-17
</region>

<region>
hivel=86
key=F3
lovel=43
offset=1103
sample=Trombone_staccato_MF_F2_RR1.opus
tune=-32
</region>

<region>
hivel=86
key=F2
lovel=43
offset=1811
sample=Trombone_staccato_MF_F1_RR1.opus
tune=-8
</region>

<region>
hivel=86
key=F#4
lovel=43
offset=304
sample=Trombone_staccato_MF_F#3_RR1.opus
tune=-15
</region>

<region>
hivel=86
key=F#3
lovel=43
offset=1122
sample=Trombone_staccato_MF_F#2_RR1.opus
tune=-13
</region>

<region>
hivel=86
key=F#2
lovel=43
offset=2043
sample=Trombone_staccato_MF_F#1_RR1.opus
tune=-26
</region>

<region>
hivel=86
key=E4
lovel=43
offset=787
sample=Trombone_staccato_MF_E3_RR1.opus
tune=-12
</region>

<region>
hivel=86
key=E3
lovel=43
offset=132
sample=Trombone_staccato_MF_E2_RR1.opus
tune=-19
</region>

<region>
hikey=E2
hivel=86
lokey=C1
lovel=43
offset=1818
pitch_keycenter=E2
sample=Trombone_staccato_MF_E1_RR1.opus
tune=-17
</region>

<region>
hivel=86
key=D4
lovel=43
offset=498
sample=Trombone_staccato_MF_D3_RR1.opus
tune=-17
</region>

<region>
hivel=86
key=D3
lovel=43
offset=241
sample=Trombone_staccato_MF_D2_RR1.opus
tune=-12
</region>

<region>
hivel=86
key=D#4
lovel=43
offset=896
sample=Trombone_staccato_MF_D#3_RR1.opus
tune=-17
</region>

<region>
hivel=86
key=D#3
lovel=43
offset=457
sample=Trombone_staccato_MF_D#2_RR1.opus
tune=-28
</region>

<region>
hikey=D#5
hivel=86
lokey=C5
lovel=43
offset=174
pitch_keycenter=C5
sample=Trombone_staccato_MF_C4_RR1.opus
tune=-14
</region>

<region>
hikey=C4
hivel=86
lokey=C4
lovel=43
offset=848
sample=Trombone_staccato_MF_C3_RR1.opus
tune=-6
</region>

<region>
hivel=86
key=C3
lovel=43
offset=910
sample=Trombone_staccato_MF_C2_RR1.opus
</region>

<region>
hivel=86
key=C#4
lovel=43
offset=587
sample=Trombone_staccato_MF_C#3_RR1.opus
tune=-2
</region>

<region>
hivel=86
key=C#3
lovel=43
offset=235
sample=Trombone_staccato_MF_C#2_RR1.opus
tune=-25
</region>

<region>
hivel=86
key=B4
lovel=43
offset=811
sample=Trombone_staccato_MF_B3_RR1.opus
tune=-4
</region>

<region>
hivel=86
key=B3
lovel=43
sample=Trombone_staccato_MF_B2_RR1.opus
tune=-3
</region>

<region>
hivel=86
key=B2
lovel=43
offset=634
sample=Trombone_staccato_MF_B1_RR1.opus
tune=-30
</region>

<region>
hivel=86
key=A4
lovel=43
offset=836
sample=Trombone_staccato_MF_A3_RR1.opus
tune=-20
</region>

<region>
hivel=86
key=A3
lovel=43
sample=Trombone_staccato_MF_A2_RR1.opus
tune=-8
</region>

<region>
hivel=86
key=A2
lovel=43
offset=388
sample=Trombone_staccato_MF_A1_RR1.opus
tune=-30
</region>

<region>
hivel=86
key=A#4
lovel=43
offset=233
sample=Trombone_staccato_MF_A#3_RR1.opus
tune=-13
</region>

<region>
hivel=86
key=A#3
lovel=43
offset=341
sample=Trombone_staccato_MF_A#2_RR1.opus
tune=-10
</region>

<region>
hivel=86
key=A#2
lovel=43
offset=1188
sample=Trombone_staccato_MF_A#1_RR1.opus
tune=-27
</region>

<region>
hivel=127
key=G4
lovel=87
offset=954
sample=Trombone_staccato_FF_G3_RR1.opus
tune=-10
</region>

<region>
hivel=127
key=G3
lovel=87
offset=299
sample=Trombone_staccato_FF_G2_RR1.opus
tune=-2
</region>

<region>
hivel=127
key=G2
lovel=87
offset=501
sample=Trombone_staccato_FF_G1_RR1.opus
tune=-11
</region>

<region>
hivel=127
key=G#4
lovel=87
offset=548
sample=Trombone_staccato_FF_G#3_RR1.opus
tune=-16
</region>

<region>
hivel=127
key=G#3
lovel=87
offset=826
sample=Trombone_staccato_FF_G#2_RR1.opus
tune=-23
</region>

<region>
hivel=127
key=G#2
lovel=87
offset=966
sample=Trombone_staccato_FF_G#1_RR1.opus
tune=-11
</region>

<region>
hivel=127
key=F4
lovel=87
offset=479
sample=Trombone_staccato_FF_F3_RR1.opus
tune=-20
</region>

<region>
hivel=127
key=F3
lovel=87
offset=360
sample=Trombone_staccato_FF_F2_RR1.opus
tune=-10
</region>

<region>
hivel=127
key=F2
lovel=87
offset=175
sample=Trombone_staccato_FF_F1_RR1.opus
</region>

<region>
hivel=127
key=F#4
lovel=87
offset=429
sample=Trombone_staccato_FF_F#3_RR1.opus
tune=-21
</region>

<region>
hivel=127
key=F#3
lovel=87
sample=Trombone_staccato_FF_F#2_RR1.opus
tune=+8
</region>

<region>
hivel=127
key=F#2
lovel=87
offset=461
sample=Trombone_staccato_FF_F#1_RR1.opus
tune=-19
</region>

<region>
hivel=127
key=E4
lovel=87
offset=1117
sample=Trombone_staccato_FF_E3_RR1.opus
tune=-15
</region>

<region>
hivel=127
key=E3
lovel=87
offset=313
sample=Trombone_staccato_FF_E2_RR1.opus
tune=-15
</region>

<region>
hikey=E2
hivel=127
lokey=C1
lovel=87
offset=693
pitch_keycenter=E2
sample=Trombone_staccato_FF_E1_RR1.opus
tune=-17
</region>

<region>
hivel=127
key=D4
lovel=87
offset=192
sample=Trombone_staccato_FF_D3_RR1.opus
tune=+3
</region>

<region>
hivel=127
key=D3
lovel=87
offset=854
sample=Trombone_staccato_FF_D2_RR1.opus
tune=-3
</region>

<region>
hivel=127
key=D#4
lovel=87
offset=478
sample=Trombone_staccato_FF_D#3_RR1.opus
tune=-17
</region>

<region>
hivel=127
key=D#3
lovel=87
sample=Trombone_staccato_FF_D#2_RR1.opus
tune=-12
</region>

<region>
hikey=D#5
hivel=127
lokey=C5
lovel=87
offset=1269
pitch_keycenter=C5
sample=Trombone_staccato_FF_C4_RR1.opus
tune=-22
</region>

<region>
hikey=C4
hivel=127
lokey=C4
lovel=87
offset=294
sample=Trombone_staccato_FF_C3_RR1.opus
tune=-1
</region>

<region>
hivel=127
key=C3
lovel=87
offset=621
sample=Trombone_staccato_FF_C2_RR1.opus
tune=+2
</region>

<region>
hivel=127
key=C#4
lovel=87
offset=432
sample=Trombone_staccato_FF_C#3_RR1.opus
tune=+5
</region>

<region>
hivel=127
key=C#3
lovel=87
offset=253
sample=Trombone_staccato_FF_C#2_RR1.opus
tune=-7
</region>

<region>
hivel=127
key=B4
lovel=87
offset=1589
sample=Trombone_staccato_FF_B3_RR1.opus
tune=-10
</region>

<region>
hivel=127
key=B3
lovel=87
offset=526
sample=Trombone_staccato_FF_B2_RR1.opus
tune=+3
</region>

<region>
hivel=127
key=B2
lovel=87
offset=698
sample=Trombone_staccato_FF_B1_RR1.opus
tune=-6
</region>

<region>
hivel=127
key=A4
lovel=87
offset=886
sample=Trombone_staccato_FF_A3_RR1.opus
tune=-13
</region>

<region>
hivel=127
key=A3
lovel=87
offset=673
sample=Trombone_staccato_FF_A2_RR1.opus
tune=-8
</region>

<region>
hivel=127
key=A2
lovel=87
offset=410
sample=Trombone_staccato_FF_A1_RR1.opus
tune=-12
</region>

<region>
hivel=127
key=A#4
lovel=87
offset=335
sample=Trombone_staccato_FF_A#3_RR1.opus
tune=-7
</region>

<region>
hivel=127
key=A#3
lovel=87
offset=363
sample=Trombone_staccato_FF_A#2_RR1.opus
tune=-1
</region>

<region>
hivel=127
key=A#2
lovel=87
offset=354
sample=Trombone_staccato_FF_A#1_RR1.opus
tune=-19
</region>
</group>

<group>
group_label=RR2
seq_length=4
seq_position=2

<region>
hivel=42
key=G4
lovel=0
offset=6115
sample=Trombone_staccato_PP_G3_RR2.opus
tune=-23
</region>

<region>
hivel=42
key=G3
lovel=0
offset=5776
sample=Trombone_staccato_PP_G2_RR2.opus
tune=-13
</region>

<region>
hivel=42
key=G2
lovel=0
offset=934
sample=Trombone_staccato_PP_G1_RR2.opus
tune=-9
</region>

<region>
hivel=42
key=G#4
lovel=0
offset=7496
sample=Trombone_staccato_PP_G#3_RR2.opus
tune=-32
</region>

<region>
hivel=42
key=G#3
lovel=0
offset=5362
sample=Trombone_staccato_PP_G#2_RR2.opus
tune=-8
</region>

<region>
hivel=42
key=G#2
lovel=0
offset=2888
sample=Trombone_staccato_PP_G#1_RR2.opus
tune=-15
</region>

<region>
hivel=42
key=F4
lovel=0
offset=803
sample=Trombone_staccato_PP_F3_RR2.opus
tune=-33
</region>

<region>
hivel=42
key=F3
lovel=0
offset=2867
sample=Trombone_staccato_PP_F2_RR2.opus
tune=-15
</region>

<region>
hivel=42
key=F2
lovel=0
offset=2152
sample=Trombone_staccato_PP_F1_RR2.opus
tune=-8
</region>

<region>
hivel=42
key=F#4
lovel=0
offset=183
sample=Trombone_staccato_PP_F#3_RR2.opus
tune=-41
</region>

<region>
hivel=42
key=F#3
lovel=0
offset=4809
sample=Trombone_staccato_PP_F#2_RR2.opus
tune=-2
</region>

<region>
hivel=42
key=F#2
lovel=0
offset=5645
sample=Trombone_staccato_PP_F#1_RR2.opus
tune=-8
</region>

<region>
hivel=42
key=E4
lovel=0
offset=7067
sample=Trombone_staccato_PP_E3_RR2.opus
tune=-16
</region>

<region>
hivel=42
key=E3
lovel=0
offset=1136
sample=Trombone_staccato_PP_E2_RR2.opus
tune=-20
</region>

<region>
hikey=E2
hivel=42
lokey=C1
lovel=0
offset=6648
pitch_keycenter=E2
sample=Trombone_staccato_PP_E1_RR2.opus
tune=-16
</region>

<region>
hivel=42
key=D4
lovel=0
offset=707
sample=Trombone_staccato_PP_D3_RR2.opus
tune=-25
</region>

<region>
hivel=42
key=D3
lovel=0
offset=3601
sample=Trombone_staccato_PP_D2_RR2.opus
tune=-16
</region>

<region>
hivel=42
key=D#4
lovel=0
offset=10451
sample=Trombone_staccato_PP_D#3_RR2.opus
tune=-33
</region>

<region>
hivel=42
key=D#3
lovel=0
offset=6262
sample=Trombone_staccato_PP_D#2_RR2.opus
tune=+2
</region>

<region>
hikey=D#5
hivel=42
lokey=C5
lovel=0
offset=419
pitch_keycenter=C5
sample=Trombone_staccato_PP_C4_RR2.opus
tune=-25
</region>

<region>
hikey=C4
hivel=42
lokey=C4
lovel=0
offset=7723
sample=Trombone_staccato_PP_C3_RR2.opus
tune=-20
</region>

<region>
hivel=42
key=C3
lovel=0
offset=4646
sample=Trombone_staccato_PP_C2_RR2.opus
tune=+19
</region>

<region>
hivel=42
key=C#4
lovel=0
offset=1508
sample=Trombone_staccato_PP_C#3_RR2.opus
tune=-16
</region>

<region>
hivel=42
key=C#3
lovel=0
offset=3717
sample=Trombone_staccato_PP_C#2_RR2.opus
tune=-2
</region>

<region>
hivel=42
key=B4
lovel=0
sample=Trombone_staccato_PP_B3_RR2.opus
tune=-26
</region>

<region>
hivel=42
key=B3
lovel=0
offset=478
sample=Trombone_staccato_PP_B2_RR2.opus
tune=+3
</region>

<region>
hivel=42
key=B2
lovel=0
offset=5459
sample=Trombone_staccato_PP_B1_RR2.opus
tune=-3
</region>

<region>
hivel=42
key=A4
lovel=0
sample=Trombone_staccato_PP_A3_RR2.opus
tune=-18
</region>

<region>
hivel=42
key=A3
lovel=0
offset=7017
sample=Trombone_staccato_PP_A2_RR2.opus
tune=-6
</region>

<region>
hivel=42
key=A2
lovel=0
offset=2477
sample=Trombone_staccato_PP_A1_RR2.opus
tune=-6
</region>

<region>
hivel=42
key=A#4
lovel=0
offset=8525
sample=Trombone_staccato_PP_A#3_RR2.opus
tune=-26
</region>

<region>
hivel=42
key=A#3
lovel=0
offset=342
sample=Trombone_staccato_PP_A#2_RR2.opus
tune=+6
</region>

<region>
hivel=42
key=A#2
lovel=0
offset=5932
sample=Trombone_staccato_PP_A#1_RR2.opus
tune=+1
</region>

<region>
hivel=86
key=G4
lovel=43
offset=38
sample=Trombone_staccato_MF_G3_RR2.opus
tune=-15
</region>

<region>
hivel=86
key=G3
lovel=43
offset=17
sample=Trombone_staccato_MF_G2_RR2.opus
tune=-7
</region>

<region>
hivel=86
key=G2
lovel=43
offset=1353
sample=Trombone_staccato_MF_G1_RR2.opus
tune=-28
</region>

<region>
hivel=86
key=G#4
lovel=43
offset=796
sample=Trombone_staccato_MF_G#3_RR2.opus
tune=-31
</region>

<region>
hivel=86
key=G#3
lovel=43
offset=480
sample=Trombone_staccato_MF_G#2_RR2.opus
</region>

<region>
hivel=86
key=G#2
lovel=43
offset=2213
sample=Trombone_staccato_MF_G#1_RR2.opus
tune=-39
</region>

<region>
hivel=86
key=F4
lovel=43
offset=1048
sample=Trombone_staccato_MF_F3_RR2.opus
tune=-17
</region>

<region>
hivel=86
key=F3
lovel=43
sample=Trombone_staccato_MF_F2_RR2.opus
tune=-30
</region>

<region>
hivel=86
key=F2
lovel=43
offset=6314
sample=Trombone_staccato_MF_F1_RR2.opus
tune=-13
</region>

<region>
hivel=86
key=F#4
lovel=43
offset=412
sample=Trombone_staccato_MF_F#3_RR2.opus
tune=-19
</region>

<region>
hivel=86
key=F#3
lovel=43
offset=795
sample=Trombone_staccato_MF_F#2_RR2.opus
tune=-16
</region>

<region>
hivel=86
key=F#2
lovel=43
offset=6386
sample=Trombone_staccato_MF_F#1_RR2.opus
tune=-33
</region>

<region>
hivel=86
key=E4
lovel=43
offset=8260
sample=Trombone_staccato_MF_E3_RR2.opus
tune=-16
</region>

<region>
hivel=86
key=E3
lovel=43
offset=6298
sample=Trombone_staccato_MF_E2_RR2.opus
tune=-21
</region>

<region>
hikey=E2
hivel=86
lokey=C1
lovel=43
offset=1280
pitch_keycenter=E2
sample=Trombone_staccato_MF_E1_RR2.opus
tune=-24
</region>

<region>
hivel=86
key=D4
lovel=43
offset=214
sample=Trombone_staccato_MF_D3_RR2.opus
tune=-18
</region>

<region>
hivel=86
key=D3
lovel=43
offset=835
sample=Trombone_staccato_MF_D2_RR2.opus
tune=-18
</region>

<region>
hivel=86
key=D#4
lovel=43
offset=7942
sample=Trombone_staccato_MF_D#3_RR2.opus
tune=-24
</region>

<region>
hivel=86
key=D#3
lovel=43
offset=788
sample=Trombone_staccato_MF_D#2_RR2.opus
tune=-30
</region>

<region>
hikey=D#5
hivel=86
lokey=C5
lovel=43
offset=6718
pitch_keycenter=C5
sample=Trombone_staccato_MF_C4_RR2.opus
tune=-15
</region>

<region>
hikey=C4
hivel=86
lokey=C4
lovel=43
offset=7989
sample=Trombone_staccato_MF_C3_RR2.opus
tune=-9
</region>

<region>
hivel=86
key=C3
lovel=43
offset=617
sample=Trombone_staccato_MF_C2_RR2.opus
tune=-4
</region>

<region>
hivel=86
key=C#4
lovel=43
offset=9922
sample=Trombone_staccato_MF_C#3_RR2.opus
tune=-4
</region>

<region>
hivel=86
key=C#3
lovel=43
offset=7328
sample=Trombone_staccato_MF_C#2_RR2.opus
tune=-24
</region>

<region>
hivel=86
key=B4
lovel=43
offset=463
sample=Trombone_staccato_MF_B3_RR2.opus
tune=-17
</region>

<region>
hivel=86
key=B3
lovel=43
offset=7322
sample=Trombone_staccato_MF_B2_RR2.opus
tune=-3
</region>

<region>
hivel=86
key=B2
lovel=43
offset=4513
sample=Trombone_staccato_MF_B1_RR2.opus
tune=-32
</region>

<region>
hivel=86
key=A4
lovel=43
offset=765
sample=Trombone_staccato_MF_A3_RR2.opus
tune=-25
</region>

<region>
hivel=86
key=A3
lovel=43
sample=Trombone_staccato_MF_A2_RR2.opus
tune=-12
</region>

<region>
hivel=86
key=A2
lovel=43
offset=4500
sample=Trombone_staccato_MF_A1_RR2.opus
tune=-26
</region>

<region>
hivel=86
key=A#4
lovel=43
offset=7210
sample=Trombone_staccato_MF_A#3_RR2.opus
tune=-17
</region>

<region>
hivel=86
key=A#3
lovel=43
offset=54
sample=Trombone_staccato_MF_A#2_RR2.opus
tune=-11
</region>

<region>
hivel=86
key=A#2
lovel=43
offset=355
sample=Trombone_staccato_MF_A#1_RR2.opus
tune=-21
</region>

<region>
hivel=127
key=G4
lovel=87
offset=5949
sample=Trombone_staccato_FF_G3_RR2.opus
tune=-16
</region>

<region>
hivel=127
key=G3
lovel=87
offset=8875
sample=Trombone_staccato_FF_G2_RR2.opus
tune=-5
</region>

<region>
hivel=127
key=G2
lovel=87
offset=503
sample=Trombone_staccato_FF_G1_RR2.opus
tune=-16
</region>

<region>
hivel=127
key=G#4
lovel=87
offset=6583
sample=Trombone_staccato_FF_G#3_RR2.opus
tune=-20
</region>

<region>
hivel=127
key=G#3
lovel=87
offset=596
sample=Trombone_staccato_FF_G#2_RR2.opus
tune=-27
</region>

<region>
hivel=127
key=G#2
lovel=87
offset=464
sample=Trombone_staccato_FF_G#1_RR2.opus
tune=-21
</region>

<region>
hivel=127
key=F4
lovel=87
offset=9331
sample=Trombone_staccato_FF_F3_RR2.opus
tune=-22
</region>

<region>
hivel=127
key=F3
lovel=87
offset=355
sample=Trombone_staccato_FF_F2_RR2.opus
tune=-10
</region>

<region>
hivel=127
key=F2
lovel=87
offset=615
sample=Trombone_staccato_FF_F1_RR2.opus
tune=-2
</region>

<region>
hivel=127
key=F#4
lovel=87
offset=410
sample=Trombone_staccato_FF_F#3_RR2.opus
tune=-19
</region>

<region>
hivel=127
key=F#3
lovel=87
sample=Trombone_staccato_FF_F#2_RR2.opus
tune=-1
</region>

<region>
hivel=127
key=F#2
lovel=87
offset=3768
sample=Trombone_staccato_FF_F#1_RR2.opus
tune=-20
</region>

<region>
hivel=127
key=E4
lovel=87
offset=1029
sample=Trombone_staccato_FF_E3_RR2.opus
tune=-16
</region>

<region>
hivel=127
key=E3
lovel=87
offset=582
sample=Trombone_staccato_FF_E2_RR2.opus
tune=-14
</region>

<region>
hikey=E2
hivel=127
lokey=C1
lovel=87
offset=8972
pitch_keycenter=E2
sample=Trombone_staccato_FF_E1_RR2.opus
tune=-34
</region>

<region>
hivel=127
key=D4
lovel=87
offset=187
sample=Trombone_staccato_FF_D3_RR2.opus
</region>

<region>
hivel=127
key=D3
lovel=87
offset=186
sample=Trombone_staccato_FF_D2_RR2.opus
tune=-14
</region>

<region>
hivel=127
key=D#4
lovel=87
offset=885
sample=Trombone_staccato_FF_D#3_RR2.opus
tune=-23
</region>

<region>
hivel=127
key=D#3
lovel=87
offset=910
sample=Trombone_staccato_FF_D#2_RR2.opus
tune=-17
</region>

<region>
hikey=D#5
hivel=127
lokey=C5
lovel=87
offset=1436
pitch_keycenter=C5
sample=Trombone_staccato_FF_C4_RR2.opus
tune=-21
</region>

<region>
hikey=C4
hivel=127
lokey=C4
lovel=87
offset=553
sample=Trombone_staccato_FF_C3_RR2.opus
tune=-3
</region>

<region>
hivel=127
key=C3
lovel=87
offset=621
sample=Trombone_staccato_FF_C2_RR2.opus
tune=-3
</region>

<region>
hivel=127
key=C#4
lovel=87
offset=433
sample=Trombone_staccato_FF_C#3_RR2.opus
tune=+4
</region>

<region>
hivel=127
key=C#3
lovel=87
offset=561
sample=Trombone_staccato_FF_C#2_RR2.opus
tune=-6
</region>

<region>
hivel=127
key=B4
lovel=87
offset=1004
sample=Trombone_staccato_FF_B3_RR2.opus
tune=-14
</region>

<region>
hivel=127
key=B3
lovel=87
offset=7063
sample=Trombone_staccato_FF_B2_RR2.opus
tune=+1
</region>

<region>
hivel=127
key=B2
lovel=87
offset=1041
sample=Trombone_staccato_FF_B1_RR2.opus
tune=-16
</region>

<region>
hivel=127
key=A4
lovel=87
offset=1036
sample=Trombone_staccato_FF_A3_RR2.opus
tune=-19
</region>

<region>
hivel=127
key=A3
lovel=87
offset=956
sample=Trombone_staccato_FF_A2_RR2.opus
tune=-7
</region>

<region>
hivel=127
key=A2
lovel=87
offset=373
sample=Trombone_staccato_FF_A1_RR2.opus
tune=-16
</region>

<region>
hivel=127
key=A#4
lovel=87
offset=458
sample=Trombone_staccato_FF_A#3_RR2.opus
tune=-9
</region>

<region>
hivel=127
key=A#3
lovel=87
sample=Trombone_staccato_FF_A#2_RR2.opus
tune=-6
</region>

<region>
hivel=127
key=A#2
lovel=87
offset=353
sample=Trombone_staccato_FF_A#1_RR2.opus
tune=-19
</region>
</group>

<group>
group_label=RR3
seq_length=4
seq_position=3

<region>
hivel=42
key=G4
lovel=0
sample=Trombone_staccato_PP_G3_RR3.opus
tune=-26
</region>

<region>
hivel=42
key=G3
lovel=0
offset=8704
sample=Trombone_staccato_PP_G2_RR3.opus
tune=-10
</region>

<region>
hivel=42
key=G2
lovel=0
offset=7559
sample=Trombone_staccato_PP_G1_RR3.opus
tune=-1
</region>

<region>
hivel=42
key=G#4
lovel=0
offset=1227
sample=Trombone_staccato_PP_G#3_RR3.opus
tune=-37
</region>

<region>
hivel=42
key=G#3
lovel=0
offset=5943
sample=Trombone_staccato_PP_G#2_RR3.opus
tune=-7
</region>

<region>
hivel=42
key=G#2
lovel=0
offset=5023
sample=Trombone_staccato_PP_G#1_RR3.opus
tune=-20
</region>

<region>
hivel=42
key=F4
lovel=0
offset=6404
sample=Trombone_staccato_PP_F3_RR3.opus
tune=-36
</region>

<region>
hivel=42
key=F3
lovel=0
offset=7423
sample=Trombone_staccato_PP_F2_RR3.opus
tune=-9
</region>

<region>
hivel=42
key=F2
lovel=0
offset=1754
sample=Trombone_staccato_PP_F1_RR3.opus
tune=-7
</region>

<region>
hivel=42
key=F#4
lovel=0
offset=3847
sample=Trombone_staccato_PP_F#3_RR3.opus
tune=-39
</region>

<region>
hivel=42
key=F#3
lovel=0
offset=6597
sample=Trombone_staccato_PP_F#2_RR3.opus
tune=-3
</region>

<region>
hivel=42
key=F#2
lovel=0
offset=6741
sample=Trombone_staccato_PP_F#1_RR3.opus
tune=-10
</region>

<region>
hivel=42
key=E4
lovel=0
offset=6148
sample=Trombone_staccato_PP_E3_RR3.opus
tune=-17
</region>

<region>
hivel=42
key=E3
lovel=0
offset=2590
sample=Trombone_staccato_PP_E2_RR3.opus
tune=-21
</region>

<region>
hikey=E2
hivel=42
lokey=C1
lovel=0
offset=5957
pitch_keycenter=E2
sample=Trombone_staccato_PP_E1_RR3.opus
tune=-13
</region>

<region>
hivel=42
key=D4
lovel=0
offset=8903
sample=Trombone_staccato_PP_D3_RR3.opus
tune=-22
</region>

<region>
hivel=42
key=D3
lovel=0
offset=1829
sample=Trombone_staccato_PP_D2_RR3.opus
tune=-18
</region>

<region>
hivel=42
key=D#4
lovel=0
offset=7238
sample=Trombone_staccato_PP_D#3_RR3.opus
tune=-35
</region>

<region>
hivel=42
key=D#3
lovel=0
offset=4246
sample=Trombone_staccato_PP_D#2_RR3.opus
tune=+14
</region>

<region>
hikey=D#5
hivel=42
lokey=C5
lovel=0
pitch_keycenter=C5
sample=Trombone_staccato_PP_C4_RR3.opus
tune=-22
</region>

<region>
hikey=C4
hivel=42
lokey=C4
lovel=0
offset=7047
sample=Trombone_staccato_PP_C3_RR3.opus
tune=-16
</region>

<region>
hivel=42
key=C3
lovel=0
offset=2460
sample=Trombone_staccato_PP_C2_RR3.opus
tune=+16
</region>

<region>
hivel=42
key=C#4
lovel=0
offset=480
sample=Trombone_staccato_PP_C#3_RR3.opus
tune=-19
</region>

<region>
hivel=42
key=C#3
lovel=0
offset=4196
sample=Trombone_staccato_PP_C#2_RR3.opus
tune=-2
</region>

<region>
hivel=42
key=B4
lovel=0
offset=290
sample=Trombone_staccato_PP_B3_RR3.opus
tune=-25
</region>

<region>
hivel=42
key=B3
lovel=0
offset=6987
sample=Trombone_staccato_PP_B2_RR3.opus
tune=-5
</region>

<region>
hivel=42
key=B2
lovel=0
offset=6688
sample=Trombone_staccato_PP_B1_RR3.opus
tune=-5
</region>

<region>
hivel=42
key=A4
lovel=0
sample=Trombone_staccato_PP_A3_RR3.opus
tune=-21
</region>

<region>
hivel=42
key=A3
lovel=0
offset=310
sample=Trombone_staccato_PP_A2_RR3.opus
tune=-1
</region>

<region>
hivel=42
key=A2
lovel=0
offset=3542
sample=Trombone_staccato_PP_A1_RR3.opus
tune=-8
</region>

<region>
hivel=42
key=A#4
lovel=0
offset=401
sample=Trombone_staccato_PP_A#3_RR3.opus
tune=-28
</region>

<region>
hivel=42
key=A#3
lovel=0
offset=9600
sample=Trombone_staccato_PP_A#2_RR3.opus
tune=+4
</region>

<region>
hivel=42
key=A#2
lovel=0
offset=2057
sample=Trombone_staccato_PP_A#1_RR3.opus
tune=-6
</region>

<region>
hivel=86
key=G4
lovel=43
offset=111
sample=Trombone_staccato_MF_G3_RR3.opus
tune=-17
</region>

<region>
hivel=86
key=G3
lovel=43
offset=6889
sample=Trombone_staccato_MF_G2_RR3.opus
tune=-17
</region>

<region>
hivel=86
key=G2
lovel=43
offset=1375
sample=Trombone_staccato_MF_G1_RR3.opus
tune=-30
</region>

<region>
hivel=86
key=G#4
lovel=43
offset=823
sample=Trombone_staccato_MF_G#3_RR3.opus
tune=-30
</region>

<region>
hivel=86
key=G#3
lovel=43
offset=272
sample=Trombone_staccato_MF_G#2_RR3.opus
tune=-7
</region>

<region>
hivel=86
key=G#2
lovel=43
offset=3635
sample=Trombone_staccato_MF_G#1_RR3.opus
tune=-44
</region>

<region>
hivel=86
key=F4
lovel=43
offset=7740
sample=Trombone_staccato_MF_F3_RR3.opus
tune=-21
</region>

<region>
hivel=86
key=F3
lovel=43
offset=5979
sample=Trombone_staccato_MF_F2_RR3.opus
tune=-26
</region>

<region>
hivel=86
key=F2
lovel=43
offset=9005
sample=Trombone_staccato_MF_F1_RR3.opus
tune=-10
</region>

<region>
hivel=86
key=F#4
lovel=43
offset=331
sample=Trombone_staccato_MF_F#3_RR3.opus
tune=-17
</region>

<region>
hivel=86
key=F#3
lovel=43
offset=6168
sample=Trombone_staccato_MF_F#2_RR3.opus
tune=-14
</region>

<region>
hivel=86
key=F#2
lovel=43
offset=3855
sample=Trombone_staccato_MF_F#1_RR3.opus
tune=-30
</region>

<region>
hivel=86
key=E4
lovel=43
offset=5875
sample=Trombone_staccato_MF_E3_RR3.opus
tune=-19
</region>

<region>
hivel=86
key=E3
lovel=43
offset=6013
sample=Trombone_staccato_MF_E2_RR3.opus
tune=-14
</region>

<region>
hikey=E2
hivel=86
lokey=C1
lovel=43
offset=5688
pitch_keycenter=E2
sample=Trombone_staccato_MF_E1_RR3.opus
tune=-22
</region>

<region>
hivel=86
key=D4
lovel=43
offset=377
sample=Trombone_staccato_MF_D3_RR3.opus
tune=-23
</region>

<region>
hivel=86
key=D3
lovel=43
offset=1092
sample=Trombone_staccato_MF_D2_RR3.opus
tune=-12
</region>

<region>
hivel=86
key=D#4
lovel=43
offset=977
sample=Trombone_staccato_MF_D#3_RR3.opus
tune=-28
</region>

<region>
hivel=86
key=D#3
lovel=43
offset=1941
sample=Trombone_staccato_MF_D#2_RR3.opus
tune=-30
</region>

<region>
hikey=D#5
hivel=86
lokey=C5
lovel=43
offset=7847
pitch_keycenter=C5
sample=Trombone_staccato_MF_C4_RR3.opus
tune=-16
</region>

<region>
hikey=C4
hivel=86
lokey=C4
lovel=43
offset=7770
sample=Trombone_staccato_MF_C3_RR3.opus
tune=-5
</region>

<region>
hivel=86
key=C3
lovel=43
offset=4125
sample=Trombone_staccato_MF_C2_RR3.opus
tune=-6
</region>

<region>
hivel=86
key=C#4
lovel=43
offset=7065
sample=Trombone_staccato_MF_C#3_RR3.opus
tune=-11
</region>

<region>
hivel=86
key=C#3
lovel=43
offset=4558
sample=Trombone_staccato_MF_C#2_RR3.opus
tune=-31
</region>

<region>
hivel=86
key=B4
lovel=43
offset=196
sample=Trombone_staccato_MF_B3_RR3.opus
tune=-16
</region>

<region>
hivel=86
key=B3
lovel=43
offset=703
sample=Trombone_staccato_MF_B2_RR3.opus
tune=-9
</region>

<region>
hivel=86
key=B2
lovel=43
offset=4901
sample=Trombone_staccato_MF_B1_RR3.opus
tune=-35
</region>

<region>
hivel=86
key=A4
lovel=43
offset=473
sample=Trombone_staccato_MF_A3_RR3.opus
tune=-24
</region>

<region>
hivel=86
key=A3
lovel=43
offset=317
sample=Trombone_staccato_MF_A2_RR3.opus
tune=-14
</region>

<region>
hivel=86
key=A2
lovel=43
offset=4844
sample=Trombone_staccato_MF_A1_RR3.opus
tune=-26
</region>

<region>
hivel=86
key=A#4
lovel=43
offset=5438
sample=Trombone_staccato_MF_A#3_RR3.opus
tune=-18
</region>

<region>
hivel=86
key=A#3
lovel=43
offset=342
sample=Trombone_staccato_MF_A#2_RR3.opus
tune=-10
</region>

<region>
hivel=86
key=A#2
lovel=43
offset=3790
sample=Trombone_staccato_MF_A#1_RR3.opus
tune=-21
</region>

<region>
hivel=127
key=G4
lovel=87
offset=804
sample=Trombone_staccato_FF_G3_RR3.opus
tune=-16
</region>

<region>
hivel=127
key=G3
lovel=87
offset=5597
sample=Trombone_staccato_FF_G2_RR3.opus
tune=-10
</region>

<region>
hivel=127
key=G2
lovel=87
offset=871
sample=Trombone_staccato_FF_G1_RR3.opus
tune=-21
</region>

<region>
hivel=127
key=G#4
lovel=87
offset=5045
sample=Trombone_staccato_FF_G#3_RR3.opus
tune=-20
</region>

<region>
hivel=127
key=G#3
lovel=87
offset=467
sample=Trombone_staccato_FF_G#2_RR3.opus
tune=-25
</region>

<region>
hivel=127
key=G#2
lovel=87
offset=454
sample=Trombone_staccato_FF_G#1_RR3.opus
tune=-19
</region>

<region>
hivel=127
key=F4
lovel=87
offset=7412
sample=Trombone_staccato_FF_F3_RR3.opus
tune=-21
</region>

<region>
hivel=127
key=F3
lovel=87
offset=343
sample=Trombone_staccato_FF_F2_RR3.opus
tune=-14
</region>

<region>
hivel=127
key=F2
lovel=87
offset=171
sample=Trombone_staccato_FF_F1_RR3.opus
tune=-1
</region>

<region>
hivel=127
key=F#4
lovel=87
offset=429
sample=Trombone_staccato_FF_F#3_RR3.opus
tune=-21
</region>

<region>
hivel=127
key=F#3
lovel=87
sample=Trombone_staccato_FF_F#2_RR3.opus
</region>

<region>
hivel=127
key=F#2
lovel=87
offset=5197
sample=Trombone_staccato_FF_F#1_RR3.opus
tune=-24
</region>

<region>
hivel=127
key=E4
lovel=87
offset=724
sample=Trombone_staccato_FF_E3_RR3.opus
tune=-17
</region>

<region>
hivel=127
key=E3
lovel=87
offset=130
sample=Trombone_staccato_FF_E2_RR3.opus
tune=-13
</region>

<region>
hikey=E2
hivel=127
lokey=C1
lovel=87
offset=7429
pitch_keycenter=E2
sample=Trombone_staccato_FF_E1_RR3.opus
tune=-33
</region>

<region>
hivel=127
key=D4
lovel=87
offset=202
sample=Trombone_staccato_FF_D3_RR3.opus
tune=+1
</region>

<region>
hivel=127
key=D3
lovel=87
offset=531
sample=Trombone_staccato_FF_D2_RR3.opus
tune=-2
</region>

<region>
hivel=127
key=D#4
lovel=87
offset=6582
sample=Trombone_staccato_FF_D#3_RR3.opus
tune=-18
</region>

<region>
hivel=127
key=D#3
lovel=87
sample=Trombone_staccato_FF_D#2_RR3.opus
tune=-14
</region>

<region>
hikey=D#5
hivel=127
lokey=C5
lovel=87
offset=1343
pitch_keycenter=C5
sample=Trombone_staccato_FF_C4_RR3.opus
tune=-16
</region>

<region>
hikey=C4
hivel=127
lokey=C4
lovel=87
offset=550
sample=Trombone_staccato_FF_C3_RR3.opus
tune=-4
</region>

<region>
hivel=127
key=C3
lovel=87
offset=619
sample=Trombone_staccato_FF_C2_RR3.opus
tune=+9
</region>

<region>
hivel=127
key=C#4
lovel=87
offset=434
sample=Trombone_staccato_FF_C#3_RR3.opus
tune=+5
</region>

<region>
hivel=127
key=C#3
lovel=87
sample=Trombone_staccato_FF_C#2_RR3.opus
tune=-9
</region>

<region>
hivel=127
key=B4
lovel=87
offset=1185
sample=Trombone_staccato_FF_B3_RR3.opus
tune=-13
</region>

<region>
hivel=127
key=B3
lovel=87
offset=5545
sample=Trombone_staccato_FF_B2_RR3.opus
tune=-9
</region>

<region>
hivel=127
key=B2
lovel=87
offset=1042
sample=Trombone_staccato_FF_B1_RR3.opus
tune=-17
</region>

<region>
hivel=127
key=A4
lovel=87
offset=1037
sample=Trombone_staccato_FF_A3_RR3.opus
tune=-11
</region>

<region>
hivel=127
key=A3
lovel=87
offset=632
sample=Trombone_staccato_FF_A2_RR3.opus
tune=-6
</region>

<region>
hivel=127
key=A2
lovel=87
offset=392
sample=Trombone_staccato_FF_A1_RR3.opus
tune=-14
</region>

<region>
hivel=127
key=A#4
lovel=87
offset=772
sample=Trombone_staccato_FF_A#3_RR3.opus
tune=-8
</region>

<region>
hivel=127
key=A#3
lovel=87
offset=759
sample=Trombone_staccato_FF_A#2_RR3.opus
tune=-2
</region>

<region>
hivel=127
key=A#2
lovel=87
offset=355
sample=Trombone_staccato_FF_A#1_RR3.opus
tune=-19
</region>
</group>

<group>
group_label=RR4
seq_length=4
seq_position=4

<region>
hivel=42
key=G4
lovel=0
offset=7134
sample=Trombone_staccato_PP_G3_RR4.opus
tune=-22
</region>

<region>
hivel=42
key=G3
lovel=0
offset=6884
sample=Trombone_staccato_PP_G2_RR4.opus
tune=-17
</region>

<region>
hivel=42
key=G2
lovel=0
offset=7523
sample=Trombone_staccato_PP_G1_RR4.opus
tune=-6
</region>

<region>
hivel=42
key=G#4
lovel=0
offset=6553
sample=Trombone_staccato_PP_G#3_RR4.opus
tune=-37
</region>

<region>
hivel=42
key=G#3
lovel=0
offset=1774
sample=Trombone_staccato_PP_G#2_RR4.opus
tune=-9
</region>

<region>
hivel=42
key=G#2
lovel=0
offset=5298
sample=Trombone_staccato_PP_G#1_RR4.opus
tune=-9
</region>

<region>
hivel=42
key=F4
lovel=0
offset=6312
sample=Trombone_staccato_PP_F3_RR4.opus
tune=-33
</region>

<region>
hivel=42
key=F3
lovel=0
offset=6149
sample=Trombone_staccato_PP_F2_RR4.opus
tune=-15
</region>

<region>
hivel=42
key=F2
lovel=0
offset=8288
sample=Trombone_staccato_PP_F1_RR4.opus
tune=-17
</region>

<region>
hivel=42
key=F#4
lovel=0
offset=4448
sample=Trombone_staccato_PP_F#3_RR4.opus
tune=-36
</region>

<region>
hivel=42
key=F#3
lovel=0
offset=8457
sample=Trombone_staccato_PP_F#2_RR4.opus
tune=+3
</region>

<region>
hivel=42
key=F#2
lovel=0
offset=7221
sample=Trombone_staccato_PP_F#1_RR4.opus
tune=-6
</region>

<region>
hivel=42
key=E4
lovel=0
offset=6125
sample=Trombone_staccato_PP_E3_RR4.opus
tune=-16
</region>

<region>
hivel=42
key=E3
lovel=0
offset=2057
sample=Trombone_staccato_PP_E2_RR4.opus
tune=-13
</region>

<region>
hikey=E2
hivel=42
lokey=C1
lovel=0
offset=7871
pitch_keycenter=E2
sample=Trombone_staccato_PP_E1_RR4.opus
tune=-17
</region>

<region>
hivel=42
key=D4
lovel=0
offset=7152
sample=Trombone_staccato_PP_D3_RR4.opus
tune=-23
</region>

<region>
hivel=42
key=D3
lovel=0
offset=2647
sample=Trombone_staccato_PP_D2_RR4.opus
tune=-20
</region>

<region>
hivel=42
key=D#4
lovel=0
offset=10485
sample=Trombone_staccato_PP_D#3_RR4.opus
tune=-35
</region>

<region>
hivel=42
key=D#3
lovel=0
offset=5646
sample=Trombone_staccato_PP_D#2_RR4.opus
tune=+10
</region>

<region>
hikey=D#5
hivel=42
lokey=C5
lovel=0
offset=415
pitch_keycenter=C5
sample=Trombone_staccato_PP_C4_RR4.opus
tune=-28
</region>

<region>
hikey=C4
hivel=42
lokey=C4
lovel=0
offset=6127
sample=Trombone_staccato_PP_C3_RR4.opus
tune=-13
</region>

<region>
hivel=42
key=C3
lovel=0
offset=653
sample=Trombone_staccato_PP_C2_RR4.opus
tune=+23
</region>

<region>
hivel=42
key=C#4
lovel=0
offset=68
sample=Trombone_staccato_PP_C#3_RR4.opus
tune=-27
</region>

<region>
hivel=42
key=C#3
lovel=0
offset=5206
sample=Trombone_staccato_PP_C#2_RR4.opus
tune=+4
</region>

<region>
hivel=42
key=B4
lovel=0
offset=9
sample=Trombone_staccato_PP_B3_RR4.opus
tune=-26
</region>

<region>
hivel=42
key=B3
lovel=0
offset=776
sample=Trombone_staccato_PP_B2_RR4.opus
tune=-3
</region>

<region>
hivel=42
key=B2
lovel=0
offset=6593
sample=Trombone_staccato_PP_B1_RR4.opus
tune=-8
</region>

<region>
hivel=42
key=A4
lovel=0
sample=Trombone_staccato_PP_A3_RR4.opus
tune=-21
</region>

<region>
hivel=42
key=A3
lovel=0
offset=1300
sample=Trombone_staccato_PP_A2_RR4.opus
tune=+4
</region>

<region>
hivel=42
key=A2
lovel=0
offset=6113
sample=Trombone_staccato_PP_A1_RR4.opus
tune=-7
</region>

<region>
hivel=42
key=A#4
lovel=0
offset=309
sample=Trombone_staccato_PP_A#3_RR4.opus
tune=-23
</region>

<region>
hivel=42
key=A#3
lovel=0
offset=1481
sample=Trombone_staccato_PP_A#2_RR4.opus
tune=-1
</region>

<region>
hivel=42
key=A#2
lovel=0
offset=4913
sample=Trombone_staccato_PP_A#1_RR4.opus
tune=-11
</region>

<region>
hivel=86
key=G4
lovel=43
offset=155
sample=Trombone_staccato_MF_G3_RR4.opus
tune=-20
</region>

<region>
hivel=86
key=G3
lovel=43
offset=6181
sample=Trombone_staccato_MF_G2_RR4.opus
tune=-12
</region>

<region>
hivel=86
key=G2
lovel=43
offset=535
sample=Trombone_staccato_MF_G1_RR4.opus
tune=-24
</region>

<region>
hivel=86
key=G#4
lovel=43
offset=327
sample=Trombone_staccato_MF_G#3_RR4.opus
tune=-32
</region>

<region>
hivel=86
key=G#3
lovel=43
offset=271
sample=Trombone_staccato_MF_G#2_RR4.opus
tune=-9
</region>

<region>
hivel=86
key=G#2
lovel=43
offset=4543
sample=Trombone_staccato_MF_G#1_RR4.opus
tune=-35
</region>

<region>
hivel=86
key=F4
lovel=43
offset=8271
sample=Trombone_staccato_MF_F3_RR4.opus
tune=-15
</region>

<region>
hivel=86
key=F3
lovel=43
sample=Trombone_staccato_MF_F2_RR4.opus
tune=-21
</region>

<region>
hivel=86
key=F2
lovel=43
offset=7752
sample=Trombone_staccato_MF_F1_RR4.opus
tune=-11
</region>

<region>
hivel=86
key=F#4
lovel=43
offset=410
sample=Trombone_staccato_MF_F#3_RR4.opus
tune=-17
</region>

<region>
hivel=86
key=F#3
lovel=43
offset=7328
sample=Trombone_staccato_MF_F#2_RR4.opus
tune=-12
</region>

<region>
hivel=86
key=F#2
lovel=43
offset=950
sample=Trombone_staccato_MF_F#1_RR4.opus
tune=-24
</region>

<region>
hivel=86
key=E4
lovel=43
offset=96
sample=Trombone_staccato_MF_E3_RR4.opus
tune=-20
</region>

<region>
hivel=86
key=E3
lovel=43
offset=434
sample=Trombone_staccato_MF_E2_RR4.opus
tune=-9
</region>

<region>
hikey=E2
hivel=86
lokey=C1
lovel=43
offset=8523
pitch_keycenter=E2
sample=Trombone_staccato_MF_E1_RR4.opus
tune=-30
</region>

<region>
hivel=86
key=D4
lovel=43
sample=Trombone_staccato_MF_D3_RR4.opus
tune=-21
</region>

<region>
hivel=86
key=D3
lovel=43
offset=7153
sample=Trombone_staccato_MF_D2_RR4.opus
tune=-11
</region>

<region>
hivel=86
key=D#4
lovel=43
offset=1266
sample=Trombone_staccato_MF_D#3_RR4.opus
tune=-31
</region>

<region>
hivel=86
key=D#3
lovel=43
offset=4475
sample=Trombone_staccato_MF_D#2_RR4.opus
tune=-28
</region>

<region>
hikey=D#5
hivel=86
lokey=C5
lovel=43
offset=497
pitch_keycenter=C5
sample=Trombone_staccato_MF_C4_RR4.opus
tune=-23
</region>

<region>
hikey=C4
hivel=86
lokey=C4
lovel=43
offset=7572
sample=Trombone_staccato_MF_C3_RR4.opus
tune=-7
</region>

<region>
hivel=86
key=C3
lovel=43
offset=5078
sample=Trombone_staccato_MF_C2_RR4.opus
tune=-4
</region>

<region>
hivel=86
key=C#4
lovel=43
offset=837
sample=Trombone_staccato_MF_C#3_RR4.opus
tune=-12
</region>

<region>
hivel=86
key=C#3
lovel=43
offset=958
sample=Trombone_staccato_MF_C#2_RR4.opus
tune=-29
</region>

<region>
hivel=86
key=B4
lovel=43
offset=479
sample=Trombone_staccato_MF_B3_RR4.opus
tune=-26
</region>

<region>
hivel=86
key=B3
lovel=43
offset=506
sample=Trombone_staccato_MF_B2_RR4.opus
tune=-5
</region>

<region>
hivel=86
key=B2
lovel=43
offset=5072
sample=Trombone_staccato_MF_B1_RR4.opus
tune=-33
</region>

<region>
hivel=86
key=A4
lovel=43
offset=654
sample=Trombone_staccato_MF_A3_RR4.opus
tune=-25
</region>

<region>
hivel=86
key=A3
lovel=43
sample=Trombone_staccato_MF_A2_RR4.opus
tune=-9
</region>

<region>
hivel=86
key=A2
lovel=43
offset=4354
sample=Trombone_staccato_MF_A1_RR4.opus
tune=-21
</region>

<region>
hivel=86
key=A#4
lovel=43
offset=678
sample=Trombone_staccato_MF_A#3_RR4.opus
tune=-21
</region>

<region>
hivel=86
key=A#3
lovel=43
offset=52
sample=Trombone_staccato_MF_A#2_RR4.opus
tune=-19
</region>

<region>
hivel=86
key=A#2
lovel=43
offset=4983
sample=Trombone_staccato_MF_A#1_RR4.opus
tune=-19
</region>

<region>
hivel=127
key=G4
lovel=87
offset=581
sample=Trombone_staccato_FF_G3_RR4.opus
tune=-18
</region>

<region>
hivel=127
key=G3
lovel=87
offset=5393
sample=Trombone_staccato_FF_G2_RR4.opus
tune=-7
</region>

<region>
hivel=127
key=G2
lovel=87
offset=489
sample=Trombone_staccato_FF_G1_RR4.opus
tune=-24
</region>

<region>
hivel=127
key=G#4
lovel=87
offset=356
sample=Trombone_staccato_FF_G#3_RR4.opus
tune=-23
</region>

<region>
hivel=127
key=G#3
lovel=87
offset=4329
sample=Trombone_staccato_FF_G#2_RR4.opus
tune=-26
</region>

<region>
hivel=127
key=G#2
lovel=87
offset=951
sample=Trombone_staccato_FF_G#1_RR4.opus
tune=-13
</region>

<region>
hivel=127
key=F4
lovel=87
offset=347
sample=Trombone_staccato_FF_F3_RR4.opus
tune=-21
</region>

<region>
hivel=127
key=F3
lovel=87
offset=6026
sample=Trombone_staccato_FF_F2_RR4.opus
tune=-13
</region>

<region>
hivel=127
key=F2
lovel=87
offset=616
sample=Trombone_staccato_FF_F1_RR4.opus
tune=-5
</region>

<region>
hivel=127
key=F#4
lovel=87
offset=341
sample=Trombone_staccato_FF_F#3_RR4.opus
tune=-21
</region>

<region>
hivel=127
key=F#3
lovel=87
offset=42
sample=Trombone_staccato_FF_F#2_RR4.opus
tune=-5
</region>

<region>
hivel=127
key=F#2
lovel=87
offset=5464
sample=Trombone_staccato_FF_F#1_RR4.opus
tune=-25
</region>

<region>
hivel=127
key=E4
lovel=87
offset=1035
sample=Trombone_staccato_FF_E3_RR4.opus
tune=-15
</region>

<region>
hivel=127
key=E3
lovel=87
offset=965
sample=Trombone_staccato_FF_E2_RR4.opus
tune=-16
</region>

<region>
hikey=E2
hivel=127
lokey=C1
lovel=87
offset=6207
pitch_keycenter=E2
sample=Trombone_staccato_FF_E1_RR4.opus
tune=-29
</region>

<region>
hivel=127
key=D4
lovel=87
offset=332
sample=Trombone_staccato_FF_D3_RR4.opus
tune=+5
</region>

<region>
hivel=127
key=D3
lovel=87
offset=521
sample=Trombone_staccato_FF_D2_RR4.opus
tune=-8
</region>

<region>
hivel=127
key=D#4
lovel=87
offset=672
sample=Trombone_staccato_FF_D#3_RR4.opus
tune=-16
</region>

<region>
hivel=127
key=D#3
lovel=87
offset=455
sample=Trombone_staccato_FF_D#2_RR4.opus
tune=-18
</region>

<region>
hikey=D#5
hivel=127
lokey=C5
lovel=87
offset=590
pitch_keycenter=C5
sample=Trombone_staccato_FF_C4_RR4.opus
tune=-15
</region>

<region>
hikey=C4
hivel=127
lokey=C4
lovel=87
offset=87
sample=Trombone_staccato_FF_C3_RR4.opus
tune=-5
</region>

<region>
hivel=127
key=C3
lovel=87
offset=3468
sample=Trombone_staccato_FF_C2_RR4.opus
tune=+6
</region>

<region>
hivel=127
key=C#4
lovel=87
offset=440
sample=Trombone_staccato_FF_C#3_RR4.opus
tune=+9
</region>

<region>
hivel=127
key=C#3
lovel=87
offset=259
sample=Trombone_staccato_FF_C#2_RR4.opus
tune=-12
</region>

<region>
hivel=127
key=B4
lovel=87
offset=1529
sample=Trombone_staccato_FF_B3_RR4.opus
tune=-16
</region>

<region>
hivel=127
key=B3
lovel=87
offset=732
sample=Trombone_staccato_FF_B2_RR4.opus
tune=-5
</region>

<region>
hivel=127
key=B2
lovel=87
offset=791
sample=Trombone_staccato_FF_B1_RR4.opus
tune=-11
</region>

<region>
hivel=127
key=A4
lovel=87
offset=537
sample=Trombone_staccato_FF_A3_RR4.opus
tune=-16
</region>

<region>
hivel=127
key=A3
lovel=87
offset=424
sample=Trombone_staccato_FF_A2_RR4.opus
tune=-4
</region>

<region>
hivel=127
key=A2
lovel=87
offset=390
sample=Trombone_staccato_FF_A1_RR4.opus
tune=-18
</region>

<region>
hivel=127
key=A#4
lovel=87
offset=970
sample=Trombone_staccato_FF_A#3_RR4.opus
tune=-11
</region>

<region>
hivel=127
key=A#3
lovel=87
offset=357
sample=Trombone_staccato_FF_A#2_RR4.opus
tune=-3
</region>

<region>
hivel=127
key=A#2
lovel=87
sample=Trombone_staccato_FF_A#1_RR4.opus
tune=-18
</region>
</group>